<?xml version="1.0" encoding="UTF-8"?>
<svg width="110px" height="310px" viewBox="0 0 110 310" version="1.1" xmlns="http://www.w3.org/2000/svg" xmlns:xlink="http://www.w3.org/1999/xlink">
    <!-- Generator: Sketch 49 (51002) - http://www.bohemiancoding.com/sketch -->
    <title>Dots</title>
    <desc>Created with Sketch.</desc>
    <defs></defs>
    <g id="Page-1" stroke="none" stroke-width="1" fill="none" fill-rule="evenodd">
        <g id="Sign-Up-Page" transform="translate(-1254.000000, -620.000000)" fill="#FFEC00">
            <g id="Dots" transform="translate(1254.000000, 620.000000)">
                <g id="Group-3" transform="translate(0.000000, 60.000000)">
                    <circle id="Oval-2" cx="5" cy="5" r="5"></circle>
                    <circle id="Oval-2" cx="25" cy="5" r="5"></circle>
                    <circle id="Oval-2" cx="45" cy="5" r="5"></circle>
                    <circle id="Oval-2" cx="65" cy="5" r="5"></circle>
                    <circle id="Oval-2" cx="85" cy="5" r="5"></circle>
                    <circle id="Oval-2" cx="105" cy="5" r="5"></circle>
                </g>
                <g id="Group-3" transform="translate(0.000000, 40.000000)">
                    <circle id="Oval-2" cx="5" cy="5" r="5"></circle>
                    <circle id="Oval-2" cx="25" cy="5" r="5"></circle>
                    <circle id="Oval-2" cx="45" cy="5" r="5"></circle>
                    <circle id="Oval-2" cx="65" cy="5" r="5"></circle>
                    <circle id="Oval-2" cx="85" cy="5" r="5"></circle>
                    <circle id="Oval-2" cx="105" cy="5" r="5"></circle>
                </g>
                <g id="Group-3" transform="translate(0.000000, 20.000000)">
                    <circle id="Oval-2" cx="5" cy="5" r="5"></circle>
                    <circle id="Oval-2" cx="25" cy="5" r="5"></circle>
                    <circle id="Oval-2" cx="45" cy="5" r="5"></circle>
                    <circle id="Oval-2" cx="65" cy="5" r="5"></circle>
                    <circle id="Oval-2" cx="85" cy="5" r="5"></circle>
                    <circle id="Oval-2" cx="105" cy="5" r="5"></circle>
                </g>
                <g id="Group-3">
                    <circle id="Oval-2" cx="5" cy="5" r="5"></circle>
                    <circle id="Oval-2" cx="25" cy="5" r="5"></circle>
                    <circle id="Oval-2" cx="45" cy="5" r="5"></circle>
                    <circle id="Oval-2" cx="65" cy="5" r="5"></circle>
                    <circle id="Oval-2" cx="85" cy="5" r="5"></circle>
                    <circle id="Oval-2" cx="105" cy="5" r="5"></circle>
                </g>
                <g id="Group-3" transform="translate(0.000000, 80.000000)">
                    <circle id="Oval-2" cx="5" cy="5" r="5"></circle>
                    <circle id="Oval-2" cx="25" cy="5" r="5"></circle>
                    <circle id="Oval-2" cx="45" cy="5" r="5"></circle>
                    <circle id="Oval-2" cx="65" cy="5" r="5"></circle>
                    <circle id="Oval-2" cx="85" cy="5" r="5"></circle>
                    <circle id="Oval-2" cx="105" cy="5" r="5"></circle>
                </g>
                <g id="Group-3" transform="translate(0.000000, 100.000000)">
                    <circle id="Oval-2" cx="5" cy="5" r="5"></circle>
                    <circle id="Oval-2" cx="25" cy="5" r="5"></circle>
                    <circle id="Oval-2" cx="45" cy="5" r="5"></circle>
                    <circle id="Oval-2" cx="65" cy="5" r="5"></circle>
                    <circle id="Oval-2" cx="85" cy="5" r="5"></circle>
                    <circle id="Oval-2" cx="105" cy="5" r="5"></circle>
                </g>
                <g id="Group-3" transform="translate(0.000000, 120.000000)">
                    <circle id="Oval-2" cx="5" cy="5" r="5"></circle>
                    <circle id="Oval-2" cx="25" cy="5" r="5"></circle>
                    <circle id="Oval-2" cx="45" cy="5" r="5"></circle>
                    <circle id="Oval-2" cx="65" cy="5" r="5"></circle>
                    <circle id="Oval-2" cx="85" cy="5" r="5"></circle>
                    <circle id="Oval-2" cx="105" cy="5" r="5"></circle>
                </g>
                <g id="Group-3" transform="translate(0.000000, 140.000000)">
                    <circle id="Oval-2" cx="5" cy="5" r="5"></circle>
                    <circle id="Oval-2" cx="25" cy="5" r="5"></circle>
                    <circle id="Oval-2" cx="45" cy="5" r="5"></circle>
                    <circle id="Oval-2" cx="65" cy="5" r="5"></circle>
                    <circle id="Oval-2" cx="85" cy="5" r="5"></circle>
                    <circle id="Oval-2" cx="105" cy="5" r="5"></circle>
                </g>
                <g id="Group-3" transform="translate(0.000000, 160.000000)">
                    <circle id="Oval-2" cx="5" cy="5" r="5"></circle>
                    <circle id="Oval-2" cx="25" cy="5" r="5"></circle>
                    <circle id="Oval-2" cx="45" cy="5" r="5"></circle>
                    <circle id="Oval-2" cx="65" cy="5" r="5"></circle>
                    <circle id="Oval-2" cx="85" cy="5" r="5"></circle>
                    <circle id="Oval-2" cx="105" cy="5" r="5"></circle>
                </g>
                <g id="Group-3" transform="translate(0.000000, 180.000000)">
                    <circle id="Oval-2" cx="5" cy="5" r="5"></circle>
                    <circle id="Oval-2" cx="25" cy="5" r="5"></circle>
                    <circle id="Oval-2" cx="45" cy="5" r="5"></circle>
                    <circle id="Oval-2" cx="65" cy="5" r="5"></circle>
                    <circle id="Oval-2" cx="85" cy="5" r="5"></circle>
                    <circle id="Oval-2" cx="105" cy="5" r="5"></circle>
                </g>
                <g id="Group-3" transform="translate(0.000000, 200.000000)">
                    <circle id="Oval-2" cx="5" cy="5" r="5"></circle>
                    <circle id="Oval-2" cx="25" cy="5" r="5"></circle>
                    <circle id="Oval-2" cx="45" cy="5" r="5"></circle>
                    <circle id="Oval-2" cx="65" cy="5" r="5"></circle>
                    <circle id="Oval-2" cx="85" cy="5" r="5"></circle>
                    <circle id="Oval-2" cx="105" cy="5" r="5"></circle>
                </g>
                <g id="Group-3" transform="translate(0.000000, 220.000000)">
                    <circle id="Oval-2" cx="5" cy="5" r="5"></circle>
                    <circle id="Oval-2" cx="25" cy="5" r="5"></circle>
                    <circle id="Oval-2" cx="45" cy="5" r="5"></circle>
                    <circle id="Oval-2" cx="65" cy="5" r="5"></circle>
                    <circle id="Oval-2" cx="85" cy="5" r="5"></circle>
                    <circle id="Oval-2" cx="105" cy="5" r="5"></circle>
                </g>
                <g id="Group-3" transform="translate(0.000000, 240.000000)">
                    <circle id="Oval-2" cx="5" cy="5" r="5"></circle>
                    <circle id="Oval-2" cx="25" cy="5" r="5"></circle>
                    <circle id="Oval-2" cx="45" cy="5" r="5"></circle>
                    <circle id="Oval-2" cx="65" cy="5" r="5"></circle>
                    <circle id="Oval-2" cx="85" cy="5" r="5"></circle>
                    <circle id="Oval-2" cx="105" cy="5" r="5"></circle>
                </g>
                <g id="Group-3" transform="translate(0.000000, 260.000000)">
                    <circle id="Oval-2" cx="5" cy="5" r="5"></circle>
                    <circle id="Oval-2" cx="25" cy="5" r="5"></circle>
                    <circle id="Oval-2" cx="45" cy="5" r="5"></circle>
                    <circle id="Oval-2" cx="65" cy="5" r="5"></circle>
                    <circle id="Oval-2" cx="85" cy="5" r="5"></circle>
                    <circle id="Oval-2" cx="105" cy="5" r="5"></circle>
                </g>
                <g id="Group-3" transform="translate(0.000000, 280.000000)">
                    <circle id="Oval-2" cx="5" cy="5" r="5"></circle>
                    <circle id="Oval-2" cx="25" cy="5" r="5"></circle>
                    <circle id="Oval-2" cx="45" cy="5" r="5"></circle>
                    <circle id="Oval-2" cx="65" cy="5" r="5"></circle>
                    <circle id="Oval-2" cx="85" cy="5" r="5"></circle>
                    <circle id="Oval-2" cx="105" cy="5" r="5"></circle>
                </g>
                <g id="Group-3" transform="translate(0.000000, 300.000000)">
                    <circle id="Oval-2" cx="5" cy="5" r="5"></circle>
                    <circle id="Oval-2" cx="25" cy="5" r="5"></circle>
                    <circle id="Oval-2" cx="45" cy="5" r="5"></circle>
                    <circle id="Oval-2" cx="65" cy="5" r="5"></circle>
                    <circle id="Oval-2" cx="85" cy="5" r="5"></circle>
                    <circle id="Oval-2" cx="105" cy="5" r="5"></circle>
                </g>
            </g>
        </g>
    </g>
</svg>