<?xml version="1.0" encoding="UTF-8"?>
<svg width="758px" height="543px" viewBox="0 0 758 543" version="1.1" xmlns="http://www.w3.org/2000/svg" xmlns:xlink="http://www.w3.org/1999/xlink">
    <!-- Generator: Sketch 49 (51002) - http://www.bohemiancoding.com/sketch -->
    <title>Face</title>
    <desc>Created with Sketch.</desc>
    <defs></defs>
    <g id="Page-1" stroke="none" stroke-width="1" fill="none" fill-rule="evenodd" opacity="0.0558197464">
        <g id="Thank-You-Page" transform="translate(-633.000000, -137.000000)" fill="#9013FE">
            <g id="Face" transform="translate(633.000000, 137.000000)">
                <path d="M209,104.5 C209,162.217 162.217,209 104.5,209 C46.783,209 0,162.217 0,104.5 C0,46.783 46.783,0 104.5,0 C162.217,0 209,46.783 209,104.5" id="Fill-1"></path>
                <path d="M758,104.5 C758,162.217 711.217,209 653.5,209 C595.783,209 549,162.217 549,104.5 C549,46.783 595.783,0 653.5,0 C711.217,0 758,46.783 758,104.5" id="Fill-3"></path>
                <path d="M220,373 C220,466.894839 296.329,543 390.5,543 C484.671,543 561,466.894839 561,373 L220,373 Z" id="Fill-5"></path>
            </g>
        </g>
    </g>
</svg>