<?xml version="1.0" encoding="UTF-8"?>
<svg width="254px" height="254px" viewBox="0 0 254 254" version="1.1" xmlns="http://www.w3.org/2000/svg" xmlns:xlink="http://www.w3.org/1999/xlink">
    <!-- Generator: Sketch 49 (51002) - http://www.bohemiancoding.com/sketch -->
    <title>Private Members Club</title>
    <desc>Created with Sketch.</desc>
    <defs>
        <polygon id="path-1" points="0.5128 0.0384 12.071 0.0384 12.071 9.76963381 0.5128 9.76963381"></polygon>
        <polygon id="path-3" points="0.0730790261 0.1504 18.0141 0.1504 18.0141 16 0.0730790261 16"></polygon>
    </defs>
    <g id="Page-1" stroke="none" stroke-width="1" fill="none" fill-rule="evenodd">
        <g id="Sign-Up-Page" transform="translate(-1174.000000, -84.000000)">
            <g id="Private-Members-Club" transform="translate(1174.000000, 84.000000)">
                <circle id="Oval" fill="#000000" cx="127" cy="127" r="127"></circle>
                <g id="Page-1" transform="translate(62.000000, 40.000000)">
                    <path d="M10.5342,25.7081 C11.4182,24.8961 11.6312,23.8861 10.8182,23.0031 C10.0082,22.1191 8.9822,22.2451 8.0992,23.0571 L5.1812,25.7351 L7.6172,28.3871 L10.5342,25.7081 Z M14.1922,35.5461 L11.3642,38.1441 L0.0002,25.7701 L5.9222,20.3321 C8.7502,17.7341 11.7802,18.3731 13.6312,20.3881 C15.4172,22.3321 15.8932,25.5121 13.0652,28.1091 L9.9722,30.9501 L14.1922,35.5461 Z" id="Fill-1" fill="#FFEC00"></path>
                    <path d="M19.75,16.6876 L20.434,17.7876 C20.378,16.8336 20.784,15.7606 21.946,15.0396 C23.882,13.8346 25.495,14.6126 26.547,16.3036 C26.787,16.6906 26.979,17.1366 27.118,17.5866 L24.307,19.3346 C24.249,19.0606 24.129,18.8236 24.003,18.6206 C23.636,18.0286 22.965,17.7676 22.292,18.1866 C21.579,18.6296 21.447,19.4176 22.018,20.3346 L25.755,26.3456 L22.699,28.2466 L16.693,18.5876 L19.75,16.6876 Z" id="Fill-3" fill="#FFEC00"></path>
                    <path d="M30.8486,10.752 L35.6316,21.077 L32.3646,22.592 L27.5806,12.266 L30.8486,10.752 Z M25.2916,7.611 L28.7776,5.997 L30.3416,9.373 L26.8566,10.988 L25.2916,7.611 Z" id="Fill-5" fill="#FFEC00"></path>
                    <polygon id="Fill-7" fill="#FFEC00" points="42.1641 15.2638 42.5021 6.6378 46.1701 5.4978 45.3031 17.6818 40.9471 19.0348 33.3311 9.4858 36.9991 8.3468"></polygon>
                    <path d="M56.4629,11.5499 L56.4539,11.4789 L55.9789,11.3419 C55.5039,11.2039 54.8909,11.1319 54.2949,11.2019 C53.3649,11.3129 52.8679,11.8069 52.9579,12.5699 C53.0459,13.3089 53.6689,13.6699 54.6459,13.5539 C55.7899,13.4179 56.5959,12.6709 56.4629,11.5499 M49.3999,13.1359 C49.1139,10.7289 50.6659,9.3359 53.4539,9.0059 C54.0979,8.9299 54.7019,8.9309 55.3389,8.9999 L56.1719,9.0949 L56.1049,8.5229 C55.9779,7.4499 55.1859,6.8919 53.9229,7.0409 C52.6589,7.1909 52.0449,7.9159 51.9349,8.8229 L48.8119,8.3719 C49.2569,6.2159 50.8579,4.6249 53.6219,4.2979 C57.3169,3.8599 59.2329,5.3489 59.5829,8.3039 L60.3989,15.1929 L57.1819,15.5739 L56.9979,14.0249 C56.2029,15.4719 55.2309,16.0469 53.5149,16.2499 C51.5369,16.4839 49.6589,15.3289 49.3999,13.1359" id="Fill-9" fill="#FFEC00"></path>
                    <path d="M63.6738,11.1475 L63.8898,6.7365 L61.4918,6.6195 L61.6338,3.7425 L64.0308,3.8595 L64.2208,0.0005 L67.8168,0.1755 L67.6268,4.0365 L71.8218,4.2415 L71.6818,7.1185 L67.4868,6.9125 L67.2758,11.2045 C67.2378,11.9705 67.6248,12.4225 68.3438,12.4585 C69.0158,12.4915 69.4208,12.0545 69.5558,11.2675 L72.7888,11.9795 C72.2618,14.4045 70.6298,15.8145 67.9448,15.6825 C65.0208,15.5395 63.5438,13.7845 63.6738,11.1475" id="Fill-11" fill="#FFEC00"></path>
                    <path d="M77.9502,9.3253 L81.9822,10.2073 C82.1632,9.3873 81.6212,8.6043 80.4012,8.3383 C79.5582,8.1533 78.5172,8.4173 77.9502,9.3253 M82.0272,13.2633 L84.7482,15.0873 C83.5912,16.8983 81.4922,17.8403 78.8192,17.2553 C75.3962,16.5063 73.3302,13.5963 74.0992,10.0793 C74.7922,6.9143 77.6252,4.8563 81.0022,5.5953 C84.2622,6.3073 85.8312,8.7893 85.1592,11.8603 C85.0612,12.3053 84.9072,12.7883 84.7062,13.2603 L77.4362,11.6693 C77.2982,12.8683 78.1212,13.9323 79.5282,14.2403 C80.8182,14.5223 81.5432,14.0173 82.0272,13.2633" id="Fill-13" fill="#FFEC00"></path>
                    <polygon id="Fill-15" fill="#FFEC00" points="105.2246 28.7218 112.8176 16.0338 101.9286 26.7488 96.9856 23.7908 101.2836 9.1308 93.6906 21.8188 90.3946 19.8458 99.0236 5.4288 104.9956 9.0028 100.8626 22.9218 111.1756 12.7008 117.1486 16.2758 108.5196 30.6938"></polygon>
                    <path d="M116.9668,29.4239 L119.8748,32.3539 C120.4708,31.7619 120.4408,30.8119 119.5608,29.9259 C118.9528,29.3129 117.9358,28.9699 116.9668,29.4239 M118.2518,34.9439 L119.5468,37.9519 C117.5928,38.8449 115.3208,38.4959 113.3928,36.5549 C110.9248,34.0679 110.7688,30.5029 113.3228,27.9679 C115.6228,25.6859 119.1198,25.4949 121.5548,27.9479 C123.9038,30.3169 123.8758,33.2519 121.6448,35.4659 C121.3208,35.7879 120.9298,36.1089 120.5038,36.3949 L115.2638,31.1149 C114.4958,32.0449 114.6098,33.3859 115.6238,34.4079 C116.5538,35.3449 117.4368,35.3149 118.2518,34.9439" id="Fill-17" fill="#FFEC00"></path>
                    <path d="M129.8232,37.9122 L128.8282,38.5402 C130.0272,38.5512 130.8722,39.1242 131.4352,40.0182 C132.1392,41.1352 132.1272,42.4202 131.3682,43.4662 C132.8672,43.4572 133.9972,44.0792 134.7642,45.2972 C136.0962,47.4082 135.6832,49.5422 133.6122,50.8492 L127.1152,54.9472 L125.1942,51.9012 L131.1832,48.1232 C132.0972,47.5472 132.2852,46.7192 131.8372,46.0082 C131.3242,45.1972 130.4592,45.1752 129.4442,45.8152 L123.6572,49.4652 L121.7362,46.4192 L127.7262,42.6412 C128.6392,42.0652 128.7252,41.3022 128.2772,40.5912 C127.8292,39.8802 127.0022,39.6922 125.9862,40.3332 L120.1992,43.9832 L118.2792,40.9372 L127.9022,34.8672 L129.8232,37.9122 Z" id="Fill-19" fill="#FFEC00"></path>
                    <path d="M132.3447,61.7999 C132.8147,63.1619 134.1517,64.0969 135.9667,63.4719 C137.8957,62.8079 138.3507,61.2549 137.8807,59.8939 C137.4117,58.5319 136.0977,57.5889 134.1687,58.2539 C132.3547,58.8779 131.8757,60.4389 132.3447,61.7999 Z M144.7587,54.7339 L138.2917,56.9599 C139.4347,57.3279 140.5067,58.3039 140.9907,59.7109 C141.9677,62.5469 140.6557,65.6639 137.1387,66.8759 C133.6207,68.0869 130.7747,66.4529 129.7427,63.4579 C129.2427,62.0059 129.4117,60.6539 130.0847,59.6599 L128.8367,60.0899 L127.7037,56.7999 L143.5867,51.3299 L144.7587,54.7339 Z" id="Fill-21" fill="#FFEC00"></path>
                    <path d="M139.6934,72.0133 L140.2994,76.0963 C141.1304,75.9723 141.6704,75.1893 141.4864,73.9553 C141.3594,73.1003 140.7434,72.2213 139.6934,72.0133 M137.4584,77.2213 L136.7194,80.4133 C134.6154,79.9733 132.9914,78.3463 132.5894,75.6403 C132.0744,72.1743 134.0604,69.2103 137.6214,68.6803 C140.8264,68.2053 143.7554,70.1243 144.2634,73.5423 C144.7544,76.8423 142.9924,79.1903 139.8814,79.6523 C139.4304,79.7203 138.9244,79.7463 138.4124,79.7253 L137.3194,72.3663 C136.1494,72.6613 135.4474,73.8083 135.6584,75.2333 C135.8524,76.5383 136.5824,77.0373 137.4584,77.2213" id="Fill-23" fill="#FFEC00"></path>
                    <g id="Group-27" transform="translate(133.000000, 82.212000)">
                        <mask id="mask-2" fill="white">
                            <use xlink:href="#path-1"></use>
                        </mask>
                        <g id="Clip-26"></g>
                        <path d="M11.8848,3.8604 L10.5878,3.8344 C11.4188,4.3064 12.0978,5.2324 12.0708,6.5994 C12.0258,8.8784 10.4958,9.8084 8.5038,9.7684 C8.0478,9.7594 7.5708,9.6784 7.1158,9.5494 L7.1818,6.2394 C7.4438,6.3404 7.7068,6.3704 7.9468,6.3744 C8.6428,6.3874 9.2268,5.9664 9.2418,5.1754 C9.2588,4.3364 8.6688,3.7964 7.5898,3.7754 L0.5128,3.6364 L0.5838,0.0384 L11.9538,0.2614 L11.8848,3.8604 Z" id="Fill-25" fill="#FFEC00" mask="url(#mask-2)"></path>
                    </g>
                    <path d="M136.0498,92.8116 L137.0098,95.7856 C135.8818,96.0966 135.2098,97.0016 135.0268,98.0406 C134.8418,99.0816 135.1088,99.6406 135.6288,99.7326 C136.1958,99.8326 136.5668,99.3866 137.1978,97.4756 C137.9268,95.2896 139.2898,93.9216 141.2988,94.2776 C143.4258,94.6546 144.3248,97.0076 143.9278,99.2516 C143.4498,101.9456 142.2088,102.8966 140.8278,103.2616 L139.8638,100.3126 C140.6148,100.2016 141.0638,99.5986 141.1888,98.8896 C141.3108,98.2036 141.1138,97.6576 140.7118,97.5856 C140.2638,97.5066 139.8898,97.8306 139.3198,99.5326 C138.3348,102.4786 137.0118,103.3406 135.0028,102.9856 C132.8538,102.6046 131.7088,100.2566 132.2108,97.4206 C132.6718,94.8216 133.9608,93.3196 136.0498,92.8116" id="Fill-28" fill="#FFEC00"></path>
                    <path d="M135.998,115.5328 C133.09,114.1058 130.341,115.3498 129.168,117.7418 C127.868,120.3918 128.884,122.7348 131.074,124.3698 L128.25,126.9138 C125.074,124.2868 123.973,120.4318 126.055,116.1878 C128.454,111.2968 133.273,109.9188 137.689,112.0858 C142.106,114.2528 143.786,119.2738 141.567,123.7968 C139.548,127.9128 136.112,129.1948 133.037,128.4888 L133.17,124.6228 C135.492,125.2278 137.449,124.2898 138.475,122.1998 C139.658,119.7868 138.864,116.9388 135.998,115.5328" id="Fill-30" fill="#FFEC00"></path>
                    <polygon id="Fill-32" fill="#FFEC00" points="134.7812 134.8878 132.6662 137.8018 119.0642 127.9328 121.1782 125.0178"></polygon>
                    <path d="M118.123,145.9195 L109.931,138.0255 L112.428,135.4335 L113.552,136.5155 C113.107,135.4205 113.504,133.9705 114.587,132.8465 C116.418,130.9445 118.704,130.6475 120.865,132.7295 L126.034,137.7085 L123.535,140.3015 L119.059,135.9885 C118.021,134.9895 117,134.8385 116.084,135.7895 C115.002,136.9125 115.28,138.1805 116.49,139.3465 L120.621,143.3265 L118.123,145.9195 Z" id="Fill-34" fill="#FFEC00"></path>
                    <g id="Group-38" transform="translate(100.000000, 139.212000)">
                        <mask id="mask-4" fill="white">
                            <use xlink:href="#path-3"></use>
                        </mask>
                        <g id="Clip-37"></g>
                        <path d="M4.8691,5.9824 C3.6871,6.8044 3.1521,8.3474 4.2491,9.9234 C5.4141,11.5984 7.0331,11.6124 8.2151,10.7894 C9.3971,9.9674 9.9461,8.4444 8.7811,6.7694 C7.6831,5.1934 6.0521,5.1594 4.8691,5.9824 Z M15.0581,16.0004 L11.1501,10.3844 C11.1081,11.5854 10.4611,12.8824 9.2401,13.7324 C6.7761,15.4464 3.4191,15.0344 1.2931,11.9804 C-0.8319,8.9264 -0.0369,5.7404 2.5641,3.9294 C3.8251,3.0524 5.1731,2.8464 6.3121,3.2224 L5.5581,2.1394 L8.4161,0.1504 L18.0141,13.9434 L15.0581,16.0004 Z" id="Fill-36" fill="#FFEC00" mask="url(#mask-4)"></path>
                    </g>
                </g>
            </g>
        </g>
    </g>
</svg>